<svg data-v-423bf9ae="" xmlns="http://www.w3.org/2000/svg" viewBox="0 0 130.14799392188883 60" class="font"><!----><!----><!----><g data-v-423bf9ae="" id="d1ec6aa1-b679-4309-80b4-5cccbe42d3a6" fill="black" transform="matrix(6.342494689011948,0,0,6.342494689011948,0.5074000656927495,-31.458774376283394)"><path d="M5.24 4.96L5.24 4.96Q6.02 4.96 6.69 5.15L6.69 5.15L6.69 5.15Q7.35 5.33 8.04 5.74L8.04 5.74L8.36 5.47L8.36 5.47Q8.69 5.21 8.91 5.11L8.91 5.11L8.91 5.11Q9.13 5.01 9.41 5.01L9.41 5.01L9.41 5.01Q9.74 5.01 9.94 5.16L9.94 5.16L9.94 5.16Q10.14 5.31 10.14 5.59L10.14 5.59L10.14 5.59Q10.14 5.70 10.09 5.82L10.09 5.82L9.51 7.76L9.51 7.76Q9.41 8.09 9.26 8.23L9.26 8.23L9.26 8.23Q9.11 8.37 8.82 8.37L8.82 8.37L8.82 8.37Q8.51 8.37 8.28 8.18L8.28 8.18L8.28 8.18Q8.05 7.99 7.56 7.41L7.56 7.41L7.56 7.41Q7.07 6.85 6.67 6.62L6.67 6.62L6.67 6.62Q6.27 6.38 5.85 6.38L5.85 6.38L5.85 6.38Q5.54 6.38 5.33 6.59L5.33 6.59L5.33 6.59Q5.12 6.79 5.12 7.08L5.12 7.08L5.12 7.08Q5.12 7.42 5.46 7.71L5.46 7.71L5.46 7.71Q5.80 7.99 6.51 8.43L6.51 8.43L6.51 8.43Q7.24 8.86 7.71 9.21L7.71 9.21L7.71 9.21Q8.19 9.56 8.53 10.08L8.53 10.08L8.53 10.08Q8.86 10.60 8.86 11.27L8.86 11.27L8.86 11.27Q8.86 11.70 8.72 12.14L8.72 12.14L8.72 12.14Q8.39 13.26 7.42 13.84L7.42 13.84L7.42 13.84Q6.45 14.42 5.17 14.42L5.17 14.42L5.17 14.42Q4.20 14.42 3.54 14.20L3.54 14.20L3.54 14.20Q2.88 13.97 2.20 13.44L2.20 13.44L1.69 13.86L1.69 13.86Q1.34 14.15 1.12 14.26L1.12 14.26L1.12 14.26Q0.90 14.36 0.62 14.36L0.62 14.36L0.62 14.36Q0.29 14.36 0.10 14.21L0.10 14.21L0.10 14.21Q-0.08 14.06-0.08 13.79L-0.08 13.79L-0.08 13.79Q-0.08 13.65-0.03 13.50L-0.03 13.50L0.66 11.41L0.66 11.41Q0.77 11.05 0.97 10.89L0.97 10.89L0.97 10.89Q1.16 10.74 1.47 10.74L1.47 10.74L1.47 10.74Q1.79 10.74 2.05 10.96L2.05 10.96L2.05 10.96Q2.31 11.19 2.73 11.77L2.73 11.77L2.73 11.77Q3.18 12.42 3.56 12.67L3.56 12.67L3.56 12.67Q3.95 12.92 4.48 12.92L4.48 12.92L4.48 12.92Q4.86 12.92 5.06 12.80L5.06 12.80L5.06 12.80Q5.26 12.68 5.35 12.42L5.35 12.42L5.35 12.42Q5.38 12.35 5.38 12.21L5.38 12.21L5.38 12.21Q5.38 11.87 5.05 11.59L5.05 11.59L5.05 11.59Q4.73 11.31 4.06 10.92L4.06 10.92L4.06 10.92Q3.35 10.49 2.90 10.14L2.90 10.14L2.90 10.14Q2.45 9.80 2.12 9.28L2.12 9.28L2.12 9.28Q1.79 8.76 1.79 8.06L1.79 8.06L1.79 8.06Q1.79 7.57 1.95 7.10L1.95 7.10L1.95 7.10Q2.24 6.13 3.15 5.54L3.15 5.54L3.15 5.54Q4.06 4.96 5.24 4.96L5.24 4.96ZM16.21 5.04L16.21 5.04Q18.31 5.04 19.38 5.85L19.38 5.85L19.38 5.85Q20.44 6.65 20.44 8.20L20.44 8.20L20.44 8.20Q20.44 8.97 20.16 9.98L20.16 9.98L20.16 9.98Q19.70 11.61 18.91 12.56L18.91 12.56L18.91 12.56Q18.13 13.51 16.85 13.94L16.85 13.94L16.85 13.94Q15.57 14.38 13.57 14.36L13.57 14.36L9.76 14.35L9.76 14.35Q9.46 14.35 9.30 14.25L9.30 14.25L9.30 14.25Q9.14 14.15 9.14 13.99L9.14 13.99L9.14 13.99Q9.14 13.90 9.18 13.80L9.18 13.80L9.18 13.80Q9.23 13.68 9.30 13.62L9.30 13.62L9.30 13.62Q9.38 13.57 9.53 13.47L9.53 13.47L9.53 13.47Q9.76 13.34 9.89 13.19L9.89 13.19L9.89 13.19Q10.02 13.03 10.12 12.70L10.12 12.70L11.83 6.68L11.83 6.68Q11.89 6.50 11.89 6.33L11.89 6.33L11.89 6.33Q11.89 6.17 11.84 6.07L11.84 6.07L11.84 6.07Q11.79 5.96 11.70 5.82L11.70 5.82L11.70 5.82Q11.58 5.64 11.58 5.53L11.58 5.53L11.58 5.53Q11.58 5.49 11.61 5.38L11.61 5.38L11.61 5.38Q11.66 5.19 11.85 5.12L11.85 5.12L11.85 5.12Q12.04 5.04 12.43 5.04L12.43 5.04L16.21 5.04ZM16.58 9.67L16.58 9.67Q16.94 8.36 16.94 7.60L16.94 7.60L16.94 7.60Q16.94 6.86 16.63 6.58L16.63 6.58L16.63 6.58Q16.32 6.30 15.75 6.30L15.75 6.30L15.44 6.30L13.55 13.10L13.89 13.10L13.89 13.10Q14.53 13.10 14.97 12.83L14.97 12.83L14.97 12.83Q15.41 12.56 15.79 11.82L15.79 11.82L15.79 11.82Q16.17 11.09 16.58 9.67L16.58 9.67Z"></path></g><!----><!----></svg>